<?xml version="1.0" encoding="utf-8"?>
<!-- Generator: Adobe Illustrator 16.0.0, SVG Export Plug-In . SVG Version: 6.00 Build 0)  -->
<!DOCTYPE svg PUBLIC "-//W3C//DTD SVG 1.1//EN" "http://www.w3.org/Graphics/SVG/1.1/DTD/svg11.dtd">
<svg version="1.1" id="レイヤー_1" xmlns="http://www.w3.org/2000/svg" xmlns:xlink="http://www.w3.org/1999/xlink" x="0px"
	 y="0px" width="49.249px" height="49.248px" viewBox="0 0 49.249 49.248" enable-background="new 0 0 49.249 49.248"
	 xml:space="preserve">
<path fill="#231815" d="M24.624,0.624c-13.255,0-24,10.746-24,24c0,13.256,10.745,24,24,24c13.257,0,24-10.744,24-24
	C48.624,11.369,37.881,0.624,24.624,0.624z M17.181,35.451c-1.742,0-3.154-1.414-3.154-3.156c0-1.743,1.413-3.156,3.154-3.156
	c1.743,0,3.156,1.413,3.156,3.156C20.337,34.037,18.923,35.451,17.181,35.451z M25.098,35.473c0-2.979-1.151-5.777-3.245-7.877
	c-2.088-2.1-4.867-3.257-7.825-3.257v-4.555c8.616,0,15.623,7.039,15.623,15.689H25.098z M33.145,35.476
	c0-10.591-8.572-19.21-19.109-19.21v-4.557c13.047,0,23.664,10.664,23.664,23.768H33.145z"/>
</svg>
