<?xml version="1.0" encoding="utf-8"?>
<!-- Generator: Adobe Illustrator 16.0.0, SVG Export Plug-In . SVG Version: 6.00 Build 0)  -->
<!DOCTYPE svg PUBLIC "-//W3C//DTD SVG 1.1//EN" "http://www.w3.org/Graphics/SVG/1.1/DTD/svg11.dtd">
<svg version="1.1" id="レイヤー_1" xmlns="http://www.w3.org/2000/svg" xmlns:xlink="http://www.w3.org/1999/xlink" x="0px"
	 y="0px" width="49.249px" height="49.248px" viewBox="0 0 49.249 49.248" enable-background="new 0 0 49.249 49.248"
	 xml:space="preserve">
<circle fill="#231815" cx="24.458" cy="24.624" r="24"/>
<path fill-rule="evenodd" clip-rule="evenodd" fill="#FFFFFF" d="M14.737,14.386H34.18c1.917,0,3.471,1.548,3.471,3.458v7.261
	c0,16.854-26.576,15.875-26.386,0v-7.261C11.265,15.934,12.819,14.386,14.737,14.386z"/>
<g>
	<path fill-rule="evenodd" clip-rule="evenodd" fill="#231815" d="M25.602,31.391c-0.786,0.712-1.999,0.65-2.71-0.135l-8.233-9.105
		c-0.711-0.786-0.65-1.998,0.136-2.708l0,0c0.785-0.711,1.999-0.65,2.709,0.136l8.234,9.104
		C26.448,29.468,26.387,30.681,25.602,31.391L25.602,31.391z"/>
	<path fill-rule="evenodd" clip-rule="evenodd" fill="#231815" d="M23.221,31.382c0.785,0.711,1.998,0.652,2.711-0.132l8.251-9.088
		c0.712-0.784,0.653-1.997-0.13-2.709l0,0c-0.785-0.712-1.998-0.653-2.71,0.131l-8.251,9.088
		C22.378,29.456,22.438,30.669,23.221,31.382L23.221,31.382z"/>
</g>
</svg>
