<?xml version="1.0" encoding="utf-8"?>
<!-- Generator: Adobe Illustrator 16.0.0, SVG Export Plug-In . SVG Version: 6.00 Build 0)  -->
<!DOCTYPE svg PUBLIC "-//W3C//DTD SVG 1.1//EN" "http://www.w3.org/Graphics/SVG/1.1/DTD/svg11.dtd">
<svg version="1.1" id="レイヤー_1" xmlns="http://www.w3.org/2000/svg" xmlns:xlink="http://www.w3.org/1999/xlink" x="0px"
	 y="0px" width="92.448px" height="516.765px" viewBox="0 0 92.448 516.765" enable-background="new 0 0 92.448 516.765"
	 xml:space="preserve">
<g>
	<g>
		<g>
			<g>
				<g opacity="0.7">
					<g>
						<g>
							<path fill="#1B1B1B" d="M74.497,55.855c0.446,8.305,0.936,16.764,1.46,24.701c0.562,8.454,0.888,16.237,1.155,23.973
								c0.284,7.734,0.459,15.426,1.056,23.674c0.754,10.343,1.22,20.622,1.651,31.007c0.425,10.383,0.816,20.832,1.634,31.569
								c1.001,19.749,2.243,39.811,3.358,59.953c0.561,10.071,1.092,20.16,1.569,30.237c0.228,5.038,0.454,10.073,0.682,15.1
								c0.114,2.514,0.228,5.025,0.196,7.54c0.004,2.514,0.008,5.024,0.013,7.532c0.008,18.907,0.139,37.382,0.232,55.597
								c0.036,9.106,0.072,18.149,0.108,27.149c-0.05,9.005,0.23,17.935,0.265,26.872c0.072,8.93,0.098,17.841,0.047,26.748
								c-0.03,4.453-0.063,8.907-0.152,13.358c-0.039,2.226-0.09,4.452-0.169,6.67c-0.043,1.107-0.073,2.223-0.146,3.311
								c-0.04,0.524-0.044,1.145-0.115,1.589l-0.081,0.718c-0.038,0.242-0.099,0.448-0.175,0.71
								c-1.248,4.083-3.108,8.159-5.171,12.008c-2.107,3.849-4.515,7.539-7.312,10.88c-2.785,3.347-5.957,6.352-9.502,8.735
								c-1.774,1.189-3.652,2.183-5.578,3.036c-1.956,0.772-3.946,1.448-6.006,1.804c-2.388,0.418-4.828,0.622-7.287,0.447
								c-1.242-0.069-2.56-0.267-3.839-0.392c-0.643-0.082-1.295-0.118-1.93-0.235l-1.906-0.361
								c-5.081-0.94-10.037-2.58-14.394-5.128c-2.201-1.234-4.195-2.767-6-4.46c-1.81-1.693-3.387-3.602-4.691-5.698
								c-0.317-0.536-0.649-1.048-0.949-1.617l-0.47-0.864c-0.169-0.315-0.291-0.563-0.577-1.055
								c-0.336-0.548-0.297-0.593-0.385-0.785l-0.11-0.249l-0.06-0.122l-0.076-0.209l-0.627-1.741
								c-0.813-2.489-1.512-5.127-2.092-7.738c-0.149-0.653-0.249-1.299-0.376-1.947c-0.124-0.648-0.254-1.301-0.312-1.912
								l-0.228-1.846c-0.008-0.532-0.025-1.062-0.053-1.589l0.012-2.276l-0.056-2.31c-0.06-1.537-0.15-2.916-0.093-3.857
								c0.06-1.027,0.203-1.198,0.565-3.116c0.304-1.526,0.63-3.108,0.9-4.597c0.47-2.854,0.938-5.704,1.407-8.55
								c0.423-2.84,0.845-5.675,1.266-8.502c0.414-2.828,0.766-5.695,1.146-8.528c0.687-5.549,1.386-11.151,2.01-16.688
								c0.424-3.779,0.9-8.01,1.347-12.636c0.222-2.316,0.436-4.727,0.604-7.279c0.079-1.286,0.152-2.595,0.178-4.021l0.004-1.112
								c-0.013-0.421-0.013-0.785-0.042-1.257l-0.062-0.819c-0.024-0.302-0.087-0.625-0.138-0.936
								c-0.04-0.316-0.151-0.617-0.24-0.923c0.01-0.202-0.387-1.301-0.282-0.916c-0.042-0.163-0.077-0.322-0.092-0.562
								c-0.013-0.108-0.032-0.217-0.056-0.324l-0.01-0.479c-0.003-0.165-0.021-0.305-0.019-0.491l0.024-0.603l0.022-0.612
								l0.059-0.697c0.152-1.872,0.451-4.061,0.696-6.39c0.366-4.519,0.664-9.097,0.999-13.723c0.319-4.623,0.64-9.275,0.959-13.894
								c0.139-2.306,0.339-4.617,0.41-6.889c0.071-2.271,0.142-4.526,0.211-6.757c0.112-4.463,0.222-8.828,0.328-13.033
								c0.037-2.103,0.073-4.165,0.109-6.18c-0.007-2.029-0.013-4.011-0.02-5.936c-0.064-7.701-0.217-14.498-0.503-19.88
								c0.047,8.18,0.013,16.461-0.087,24.786c-0.203,8.281-0.522,16.587-0.859,24.898l-0.13,3.115l-0.227,3.13l-0.479,6.253
								c-0.33,4.163-0.66,8.32-0.989,12.464c-0.358,4.153-0.619,8.248-1.069,12.4c-0.248,2.078-0.547,4.105-0.695,5.857
								c-0.055,0.468-0.06,0.852-0.082,1.259c-0.006,0.196-0.029,0.417-0.025,0.593l0.015,0.515
								c0.008,0.164-0.005,0.361,0.014,0.499l0.055,0.401c0.013,0.288,0.074,0.503,0.13,0.733c0.012,0.018-0.019-0.113,0.082,0.198
								l0.101,0.321c0.005,0.054,0.056,0.11,0.023,0.16l0.028,0.098c0.065,0.262,0.173,0.514,0.204,0.783
								c0.1,0.521,0.155,1.105,0.172,1.538c0.045,0.834,0.036,1.519,0.022,2.206c-0.035,1.352-0.114,2.62-0.206,3.875
								c-0.19,2.501-0.438,4.931-0.701,7.343c0.21-2.418,0.404-4.844,0.541-7.34c0.065-1.253,0.118-2.52,0.127-3.865
								c0-0.683-0.003-1.365-0.061-2.187c-0.023-0.423-0.083-0.995-0.186-1.504c-0.033-0.264-0.141-0.51-0.208-0.766l-0.029-0.095
								c0.031-0.043-0.018-0.102-0.023-0.151l-0.1-0.311c-0.098-0.297-0.073-0.183-0.087-0.201l-0.124-0.425l-0.074-0.492
								c-0.08-0.291-0.074-0.749-0.104-1.156c-0.036-0.402,0.014-0.941,0.011-1.405c0.017-0.496,0.071-1.051,0.104-1.573
								c0.183-2.175,0.514-4.638,0.69-7.047c0.302-4.788,0.605-9.585,0.908-14.39c0.301-4.805,0.603-9.617,0.905-14.435
								c0.068-1.204,0.162-2.411,0.208-3.613l0.108-3.603l0.212-7.211c0.134-4.81,0.269-9.623,0.403-14.438
								c0.104-4.824,0.114-9.681,0.163-14.521l0.1-14.53c-0.014-1.223,0.061-2.396-0.026-3.657l-0.21-3.752l-0.604-7.271
								c-0.866-9.579-1.826-19.036-2.037-28.323l-0.07-3.474l0.112-3.4c0.091-2.364,0.183-4.727,0.274-7.087
								c0.175-4.832,0.457-9.695,0.44-14.441c0.034-4.766,0.068-9.521,0.102-14.266c-0.015-4.728-0.03-9.444-0.045-14.148
								c-0.071-9.174,0.477-18.608,0.812-27.879L15.7,172.863l-0.164,3.585c-0.042,1.19-0.028,2.359-0.049,3.538l-0.072,7.064
								l-0.002,14.36l-0.163,14.41l-0.055,3.606l-0.154,3.639l-0.319,7.28l-0.293,7.041c-0.15,2.253-0.028,4.607-0.016,6.922
								c0.234,9.328,1.167,18.77,1.973,28.315c0.175,2.423,0.406,4.781,0.526,7.264c0.057,1.235,0.138,2.482,0.169,3.707
								l-0.043,3.604c-0.067,4.805-0.134,9.605-0.2,14.402c-0.09,4.792-0.122,9.601-0.288,14.367
								c-0.176,4.765-0.352,9.525-0.528,14.282l-0.279,7.13l-0.144,3.562l-0.256,3.569c-0.351,4.756-0.701,9.506-1.051,14.251
								c-0.358,4.741-0.715,9.477-1.072,14.206c-0.213,2.379-0.564,4.778-0.78,6.984c-0.228,2.229-0.256,4.202,0.183,5.616
								l0.016,0.029l0.009,0.02l0.038,0.11c0.041,0.142,0.113,0.308,0.119,0.434c0.056,0.199,0.119,0.396,0.168,0.597
								c0.067,0.406,0.136,0.818,0.152,1.215c0.03,0.373,0.042,0.69,0.045,1c0.009,0.319,0.011,0.626,0.005,0.921
								c-0.01,1.201-0.068,2.338-0.139,3.47c-0.143,2.26-0.342,4.476-0.56,6.685c-0.44,4.413-0.961,8.785-1.506,13.146
								c-1.117,8.73-2.248,17.337-3.526,26.012c-0.668,4.311-1.314,8.613-2.058,12.904c-0.369,2.151-0.687,4.266-1.157,6.478
								l-0.657,3.269c-0.221,0.906-0.38,1.799-0.382,2.786c-0.023,1.967,0.19,4.234,0.172,6.43l-0.011,1.652l0.066,1.497
								l0.032,0.751l0.105,0.771l0.208,1.546c0.679,4.13,1.752,8.289,3.128,12.249l0.554,1.458c0.175,0.504,0.417,0.879,0.618,1.331
								c0.528,0.967,1.042,1.916,1.559,2.811c1.049,1.808,2.283,3.492,3.642,5.077c2.757,3.134,6.108,5.751,9.808,7.735
								c7.425,3.986,15.945,5.646,24.331,5.862c2.108,0.04,4.21-0.205,6.287-0.564c2.056-0.454,4.11-0.983,6.048-1.824
								c3.927-1.56,7.474-3.942,10.653-6.677c6.321-5.564,11.101-12.605,14.774-20.017c-1.728,3.576-3.71,7.067-6.021,10.378
								c-2.292,3.321-4.933,6.452-7.941,9.252c-2.999,2.806-6.451,5.195-10.229,6.987c-3.797,1.755-7.958,2.79-12.181,3.018
								c-1.055,0.059-2.114,0.018-3.172,0.023l-3.141-0.243c-2.102-0.094-4.18-0.496-6.271-0.808
								c-4.144-0.828-8.283-1.958-12.16-3.811c-3.857-1.855-7.503-4.276-10.529-7.377c-1.523-1.537-2.886-3.231-4.1-5.027
								c-0.598-0.903-1.162-1.833-1.686-2.772c-0.262-0.491-0.533-0.888-0.787-1.396c-0.24-0.498-0.547-0.983-0.723-1.493
								c-1.619-4.033-2.789-8.212-3.675-12.473c-0.448-2.128-0.726-4.303-0.778-6.491c0.031-2.174-0.119-4.349-0.234-6.531
								c-0.049-1.092-0.042-2.189,0.11-3.273c0.217-1.07,0.43-2.143,0.626-3.222l0.609-3.236l0.513-3.255
								c0.701-4.341,1.339-8.705,1.964-13.082c1.233-8.763,2.313-17.577,3.391-26.438c0.524-4.432,1.026-8.876,1.447-13.343
								c0.209-2.234,0.398-4.473,0.53-6.729c0.067-1.128,0.117-2.259,0.124-3.409c0.003-0.576,0-1.15-0.047-1.758
								c-0.013-0.317-0.063-0.637-0.113-0.956c-0.032-0.157-0.085-0.311-0.126-0.466c-0.041-0.173-0.12-0.394-0.142-0.463
								c-0.491-1.449-0.577-3.045-0.483-4.703c0.079-1.652,0.271-3.334,0.47-5.039c0.449-3.415,0.598-6.851,0.867-10.278
								c0.487-6.862,0.975-13.733,1.462-20.605l0.352-5.157l0.197-5.157l0.385-10.315l0.374-10.311
								c0.104-3.439,0.142-6.885,0.21-10.325c0.112-6.883,0.224-13.757,0.335-20.618c-0.031-1.727-0.145-3.472-0.219-5.204
								l-0.376-5.136c-0.275-3.4-0.55-6.797-0.825-10.189c-0.292-3.387-0.489-6.757-0.726-10.126
								c-0.132-3.359-0.375-6.726-0.348-10.056c-0.109-3.356,0.115-6.625,0.26-9.94c0.17-3.389,0.34-6.771,0.509-10.146
								c0.205-3.379,0.251-6.729,0.312-10.075c0.061-3.345,0.121-6.682,0.181-10.01c0.099-6.638,0.071-13.286,0.206-19.806
								c0.025-6.508,0.516-13.056,0.83-19.53c0.338-6.48,0.674-12.915,1.007-19.299c1.312-25.54,2.615-50.275,4.119-73.847
								c0.732-11.81,1.359-24.98,2.161-34.883c-1.073,13.072-1.637,26.502-2.591,40.171c-0.877,13.687-1.705,27.656-2.506,41.856
								c-0.791,14.201-1.595,28.628-2.409,43.23c-0.208,3.65-0.417,7.312-0.627,10.983c-0.096,1.834-0.236,3.675-0.298,5.512
								c-0.043,1.834-0.085,3.671-0.128,5.511c-0.184,7.354-0.161,14.81-0.333,22.269c-0.083,3.735-0.167,7.478-0.25,11.228
								l-0.068,2.813l-0.148,2.823l-0.3,5.653c-0.195,3.737-0.39,7.48-0.586,11.229c-0.042,3.729-0.032,7.476,0.166,11.235
								c0.319,7.518,0.956,15.057,1.548,22.636l0.4,5.702c0.079,1.91,0.214,3.839,0.21,5.746c-0.073,3.81-0.145,7.621-0.218,11.434
								l-0.235,11.439c-0.072,3.814-0.159,7.627-0.331,11.434c-0.31,7.614-0.62,15.229-0.929,22.837
								c-0.553,7.596-1.106,15.185-1.658,22.762l-0.417,5.676c-0.138,1.891-0.258,3.781-0.499,5.663
								c-0.216,1.882-0.458,3.759-0.586,5.646c-0.103,1.878-0.101,3.812,0.518,5.623c0.322,0.846,0.348,1.751,0.358,2.652
								c0.007,0.902-0.015,1.806-0.059,2.708c-0.083,1.805-0.22,3.606-0.373,5.405c-0.308,3.599-0.692,7.186-1.095,10.765
								c-0.807,7.159-1.737,14.274-2.627,21.381c-0.925,7.079-1.919,14.133-3.014,21.125c-0.273,1.748-0.546,3.494-0.818,5.237
								c-0.318,1.705-0.637,3.408-0.955,5.109c-0.512,1.852-0.485,3.839-0.376,5.591c0.1,1.776,0.219,3.48,0.206,5.202
								c-0.015,0.827,0.066,1.799,0.117,2.717l0.043,0.696l0.101,0.668l0.204,1.337c0.115,0.899,0.323,1.762,0.505,2.634
								c0.177,0.874,0.371,1.742,0.606,2.595c0.42,1.722,0.933,3.412,1.453,5.102l0.862,2.516c0.356,0.847,0.625,1.655,1.058,2.53
								c0.222,0.427,0.473,0.914,0.682,1.284l0.613,1.062c0.438,0.757,0.891,1.538,1.39,2.282c0.473,0.763,1.026,1.474,1.55,2.203
								c0.562,0.699,1.126,1.4,1.722,2.07c2.416,2.648,5.188,4.975,8.247,6.774c6.104,3.651,12.981,5.585,19.788,6.416
								c1.705,0.223,3.417,0.278,5.119,0.422c0.843,0.088,1.726,0.06,2.596,0.06c0.437-0.008,0.872,0.009,1.307-0.02l1.304-0.109
								c3.472-0.299,6.883-1.156,10.059-2.494c1.142-0.44,2.212-1.028,3.302-1.574c1.044-0.623,2.118-1.205,3.102-1.916
								c2.022-1.347,3.887-2.902,5.632-4.563c1.76-1.651,3.367-3.446,4.866-5.317c1.507-1.865,2.895-3.819,4.172-5.837
								c2.57-4.029,4.747-8.285,6.554-12.701c0.443-1.109,0.879-2.221,1.271-3.355c0.394-1.151,0.767-2.24,1.062-3.547
								c0.067-0.64,0.166-1.359,0.18-1.937l0.078-1.789l0.087-3.544c0.132-9.417,0.1-18.818,0.074-28.238
								c-0.047-9.419-0.094-18.851-0.142-28.295l-0.062-7.097l0.073-7.089c0.065-4.727,0.131-9.457,0.197-14.19
								c0.151-9.469,0.342-18.951,0.566-28.449c0.245-9.497,0.49-19.01,0.736-28.541c0.127-4.764,0.255-9.532,0.382-14.306
								c0.101-4.773,0.336-9.545,0.188-14.338c-0.136-20.809-0.418-41.769-0.981-62.661c-0.648-21.445-1.118-42.958-3.155-64.458
								c-1.791-21.454-4.008-42.796-6.296-64.089c-1.016-9.446-2.231-20.741-3.507-32.595c-1.232-11.859-2.523-24.277-3.738-35.966
								c-0.596-5.847-1.173-11.512-1.715-16.833c-0.187-1.373-0.63-2.674-1.119-3.913c-0.564-1.209-1.199-2.362-1.995-3.363
								c-1.551-2.033-3.475-3.571-5.391-4.792c-3.899-2.383-7.786-3.58-11.017-4.33c-3.246-0.741-5.885-1.033-7.702-1.117
								c3.054,0.238,6.146,0.799,9.203,1.637c3.052,0.842,6.065,2.014,8.811,3.657c2.74,1.628,5.204,3.813,6.805,6.529
								c0.798,1.348,1.421,2.797,1.754,4.295c0.113,0.368,0.16,0.748,0.225,1.122c0.056,0.375,0.142,0.75,0.158,1.121
								c0.062,0.743,0.122,1.479,0.183,2.208c-0.053-0.551-0.106-1.112-0.161-1.682c-0.027-0.285-0.056-0.572-0.083-0.862
								c-0.052-0.29-0.104-0.582-0.155-0.876c-0.191-1.179-0.584-2.35-1.061-3.503c-1.019-2.287-2.642-4.388-4.66-6.071
								c0.967,0.797,1.84,1.75,2.647,2.765c0.789,1.033,1.444,2.175,1.974,3.363c0.471,1.208,0.881,2.442,1.042,3.691
								c0.213,1.24,0.241,2.458,0.369,3.614c-0.087-0.958-0.175-1.921-0.259-2.85c-0.136-0.926-0.295-1.815-0.541-2.606
								c-0.475-1.584-1.097-2.802-1.502-3.421c0.742,1.301,1.365,2.852,1.722,4.529c0.07,0.422,0.142,0.849,0.213,1.277
								c0.057,0.43,0.08,0.866,0.122,1.301c0.076,0.87,0.152,1.742,0.229,2.605c0.312,3.448,0.611,6.74,0.824,9.089
								c0.262,2.752,1.468,15.421,1.812,19.045c-1.008-9.395-2.099-21.253-2.83-28.901c0.255,3.249,0.508,6.474,0.756,9.634
								c-0.172-1.96-0.424-4.844-0.655-7.49c-0.115-1.323-0.225-2.586-0.316-3.645c-0.048-0.528-0.091-1.004-0.128-1.412
								c-0.058-0.401-0.126-0.727-0.17-0.97c0.195,0.976,0.214,1.99,0.308,2.971c0.078,0.986,0.155,1.961,0.232,2.93
								c0.154,1.938,0.307,3.851,0.46,5.772c0.301,3.845,0.604,7.725,0.931,11.914c0.254,3.394,0.496,6.62,0.735,9.809
								c0.22,3.192,0.438,6.347,0.661,9.599c-0.559-7.769-1.408-18.19-1.916-23.534c0.258,3.587,0.529,7.37,0.795,11.067
								c-0.047-0.447-0.081-0.714-0.104-0.803c0.104,1.636,0.243,3.811,0.352,5.514c-0.023,0.047-0.026,0.43-0.073,0.096
								c0.021,0.043,0.042,0.064,0.062,0.091"/>
							<path fill="#1B1B1B" d="M75.264,44.318c0.843,8.041,1.859,19.433,2.498,26.779"/>
							<path fill="none" stroke="#1B1B1B" stroke-width="0" d="M51.482,514.455c0,0-0.271,0.062-0.812,0.098
								c-0.539,0.04-1.342,0.127-2.398,0.19c-2.135,0.061-5.202-0.086-9.16-0.55c-0.987-0.146-2.03-0.303-3.127-0.466
								c-1.097-0.164-2.225-0.489-3.417-0.747c-0.592-0.149-1.209-0.254-1.817-0.449c-0.608-0.195-1.229-0.396-1.863-0.599
								c-0.631-0.21-1.284-0.397-1.932-0.639c-0.639-0.268-1.291-0.54-1.954-0.818c-2.657-1.093-5.37-2.619-8.019-4.564
								c-2.651-1.941-5.189-4.397-7.359-7.362c-0.559-0.729-1.056-1.513-1.566-2.3c-0.485-0.783-0.974-1.651-1.406-2.379
								c-0.21-0.342-0.482-0.884-0.717-1.323c-0.27-0.472-0.405-0.912-0.605-1.371c-0.392-0.909-0.716-1.835-1.037-2.772
								c-1.265-3.755-2.376-7.706-3.063-11.98c-0.21-1.053-0.255-2.183-0.331-3.308c-0.069-1.109-0.019-2.137-0.093-3.225
								c-0.039-1.077-0.128-2.158-0.198-3.283c-0.068-1.118-0.138-2.298-0.003-3.518c0.036-0.61,0.181-1.208,0.3-1.812
								c0.099-0.555,0.199-1.111,0.299-1.67c0.198-1.111,0.396-2.23,0.597-3.357c0.34-2.3,0.686-4.633,1.036-6.998
								c0.676-4.736,1.346-9.618,1.964-14.612c0.625-4.989,1.202-10.141,1.809-15.37c0.596-5.236,1.179-10.583,1.687-16.029
								c0.249-2.723,0.483-5.472,0.653-8.24c0.086-1.384,0.151-2.772,0.174-4.158c0.013-0.692,0.006-1.382-0.022-2.061
								c-0.034-0.675-0.108-1.27-0.331-1.871c-0.767-2.184-0.705-4.471-0.574-6.628c0.147-2.176,0.421-4.32,0.622-6.47
								c0.312-4.32,0.546-8.696,0.825-13.104c0.268-4.41,0.537-8.859,0.809-13.341c0.134-2.242,0.268-4.491,0.403-6.749
								c0.064-2.263,0.129-4.532,0.194-6.81c0.128-4.555,0.257-9.139,0.387-13.746c0.062-2.304,0.124-4.614,0.186-6.93
								c0.025-2.314,0.051-4.634,0.076-6.959c0.049-4.649,0.098-9.318,0.147-14.001c0.023-2.342,0.047-4.687,0.071-7.035
								c0.002-0.587,0.019-1.175,0.009-1.761l-0.089-1.752c-0.068-1.169-0.1-2.335-0.198-3.509
								c-0.696-9.377-1.686-18.808-2.114-28.291l-0.163-3.557l-0.037-3.567c-0.002-1.189-0.041-2.377-0.014-3.567l0.168-3.575
								c0.24-4.715,0.48-9.426,0.719-14.127c0.15-2.341,0.171-4.696,0.229-7.044c0.052-2.348,0.104-4.692,0.157-7.034
								c0.118-4.68,0.18-9.354,0.248-14.008c0.035-2.327,0.07-4.648,0.105-6.965c0.069-2.329,0.138-4.652,0.207-6.969
								c0.038-2.324,0.193-4.618,0.351-6.903c0.151-2.288,0.302-4.568,0.452-6.841c1.203-18.188,2.417-35.907,3.649-52.846
								c1.276-16.928,2.493-33.083,3.629-48.158c0.536-7.543,1.052-14.815,1.546-21.78c0.558-6.965,1.08-13.615,1.981-19.92
								c0.125-0.789,0.226-1.569,0.403-2.353l0.238-1.168l0.377-1.199c0.583-1.436,1.159-2.819,1.825-4.199
								c1.311-2.738,3.09-5.246,5.336-7.073c2.215-1.864,4.746-3.112,7.248-3.976c2.503-0.911,5.021-1.291,7.413-1.656"/>
						</g>
						<path fill="none" stroke="#1B1B1B" stroke-width="0" d="M13.055,353.431c0,0,0.18-2.542,0.512-7.242
							c0.414-4.704,0.583-11.555,0.887-20.183c0.133-4.316,0.329-9.065,0.427-14.229c0.065-5.169,0.136-10.733,0.21-16.646
							c0.029-2.957,0.059-6,0.089-9.125c0.007-0.78,0.014-1.567,0.021-2.358c-0.014-0.797-0.075-1.611-0.112-2.425
							c-0.043-0.814-0.086-1.634-0.13-2.458c-0.063-0.811-0.127-1.627-0.191-2.448c-0.505-6.565-1.217-13.34-1.708-20.361
							c-0.468-7.004-0.972-14.302-0.492-21.607c0.304-7.539,0.753-15.384,0.746-23.267c0.116-7.915,0.118-15.962,0.118-24.121
							c0.026-2.026,0.052-4.059,0.078-6.098c0.038-2.04,0.018-4.081,0.152-6.146c0.199-4.123,0.399-8.266,0.6-12.423
							c0.797-16.632,1.593-33.501,2.491-50.215c0.881-16.71,1.928-33.283,2.955-49.279"/>
					</g>
				</g>
			</g>
		</g>
	</g>
	<circle fill="none" stroke="#333333" stroke-width="3" stroke-miterlimit="10" cx="47.875" cy="26.992" r="8.079"/>
</g>
</svg>
