<?xml version="1.0" encoding="utf-8"?>
<!-- Generator: Adobe Illustrator 16.0.0, SVG Export Plug-In . SVG Version: 6.00 Build 0)  -->
<!DOCTYPE svg PUBLIC "-//W3C//DTD SVG 1.1//EN" "http://www.w3.org/Graphics/SVG/1.1/DTD/svg11.dtd">
<svg version="1.1" id="レイヤー_1" xmlns="http://www.w3.org/2000/svg" xmlns:xlink="http://www.w3.org/1999/xlink" x="0px"
	 y="0px" width="192.578px" height="520.693px" viewBox="0 0 192.578 520.693" enable-background="new 0 0 192.578 520.693"
	 xml:space="preserve">
<g>
	<g>
		<g>
			<g opacity="0.7">
				<g>
					<g>
						<path fill="#1B1B1B" d="M187.95,368.047c0,0-0.162-0.983-0.479-2.91c-0.343-1.923-0.883-4.786-1.819-8.503
							c-1.854-7.416-5.417-18.323-12.73-31.144c0.001,0-0.927-1.698-2.89-4.954c-1.962-3.257-5.005-8.046-9.269-14.183
							c-2.129-3.07-4.559-6.479-7.273-10.227c-1.361-1.87-2.787-3.83-4.277-5.879c-1.473-2.026-2.876-4.236-4.195-6.617
							c-5.29-9.533-9.231-21.679-11.928-35.688c-2.719-14.033-4.155-29.926-4.708-47.489c-0.087-2.263-0.165-4.324-0.141-6.562
							c0.01-2.221,0.049-4.487,0.095-6.779c0.101-4.586,0.24-9.285,0.397-14.081c0.348-9.598,0.709-19.585,1.085-29.956
							c0.417-10.364,0.85-21.11,1.298-32.23c0.242-5.552,0.498-11.195,0.805-16.905c0.158-2.853,0.323-5.725,0.532-8.587
							c0.11-1.462,0.221-2.93,0.332-4.403c0.095-1.491,0.189-2.989,0.285-4.492c0.675-12.007,0.889-24.325,0.844-37.008
							c-0.024-6.343-0.118-12.768-0.333-19.314c-0.056-1.639-0.12-3.283-0.207-4.954c-0.045-0.838-0.094-1.676-0.163-2.557
							c-0.037-0.45-0.068-0.875-0.146-1.441c-0.081-0.58-0.188-1.167-0.363-1.76c-0.328-1.182-0.896-2.364-1.65-3.401
							c-0.761-1.035-1.698-1.904-2.686-2.57c-0.987-0.672-2.017-1.156-3.027-1.522c-0.996-0.364-2.047-0.605-2.858-0.776
							c-0.451-0.126-1.019-0.144-1.405-0.151l-0.793-0.006l-1.511,0.009c-0.992,0.015-1.986,0.03-2.981,0.045
							c-1.981,0.04-3.971,0.081-5.968,0.121c-3.986,0.094-8.005,0.189-12.056,0.285c-4.049,0.084-8.129,0.169-12.242,0.255
							c-2.06,0.046-4.128,0.093-6.204,0.139c-1.041,0.029-2.085,0.058-3.131,0.086l-1.586,0.053l-0.82,0.037l-0.456,0.029
							c-0.221,0.017-0.514,0.047-0.759,0.117c-1.542,0.379-3.265,0.906-4.849,1.912c-1.589,0.973-3.048,2.534-3.803,4.389
							c-0.383,0.917-0.609,1.874-0.709,2.804c-0.095,0.917-0.103,1.645-0.128,2.427c-0.036,1.533-0.038,3.042-0.033,4.556
							c0.029,6.046,0.166,12.119,0.33,18.258c0.345,12.274,0.787,24.777,1.549,37.525c0.19,3.186,0.416,6.392,0.671,9.607
							c0.25,3.167,0.437,6.375,0.596,9.597c0.321,6.448,0.533,12.97,0.71,19.549c0.341,13.16,0.483,26.557,0.514,40.167l0.021,5.622
							c0,0-0.014,2.292-0.041,6.844c-0.043,4.549-0.09,11.367-0.305,20.375c-0.057,2.25-0.124,4.638-0.228,7.143
							c-0.053,1.25-0.113,2.534-0.201,3.812c-0.111,1.312-0.227,2.658-0.344,4.039c-0.485,5.587-1.089,11.681-1.958,18.285
							c-0.866,6.602-1.987,13.707-3.539,21.242c-1.574,7.525-3.553,15.504-6.398,23.658c0,0-0.568,1.712-1.716,4.675
							c-1.155,2.954-2.899,7.173-5.534,11.927c-1.321,2.371-2.871,4.869-4.714,7.336c-1.996,2.686-4.113,5.534-6.319,8.502
							c-4.379,5.984-9.056,12.552-13.455,19.596c-4.403,7.031-8.478,14.581-11.647,22.279C7.847,345.99,5.606,353.792,4.209,361
							c-0.713,3.602-1.199,7.077-1.597,10.248c-0.404,3.192-0.712,6.171-0.947,8.878c-0.467,5.415-0.636,9.739-0.669,12.523
							c0,0-0.013,2.195,0.095,6.489c0.125,4.29,0.38,10.691,1.37,19.022c0.502,4.163,1.199,8.805,2.195,13.877
							c0.513,2.525,1.028,5.191,1.803,7.945c0.768,2.738,1.703,5.537,2.778,8.405c2.154,5.732,4.827,11.761,8.097,17.989
							c3.286,6.212,7.134,12.678,12.021,18.891c2.454,3.088,5.172,6.122,8.333,8.77c1.564,1.335,3.298,2.474,5.101,3.667
							c1.791,1.18,3.624,2.339,5.508,3.46c7.516,4.508,15.968,8.254,25.308,10.406c4.66,1.095,9.515,1.835,14.511,2.277
							c2.498,0.221,5.032,0.371,7.597,0.454l0.963,0.028c0.334,0.005,0.641,0.024,0.896,0.014l1.945-0.059
							c1.291-0.048,2.595-0.11,3.898-0.193c10.424-0.65,21.228-2.603,31.556-7.083c5.168-2.213,10.192-5.021,15.114-8.207
							c1.231-0.796,2.458-1.614,3.68-2.452c1.214-0.825,2.36-1.692,3.474-2.659c2.221-1.922,4.279-4.096,6.214-6.41
							c3.865-4.643,7.257-9.832,10.345-15.295c3.077-5.474,5.851-11.242,8.288-17.252c2.401-6.017,4.604-12.264,5.847-18.821
							c1.232-6.574,2.112-13.314,2.58-20.183c0.95-13.739,0.267-27.95-1.676-42.339c0,0,0.287,2.014,0.72,5.893
							c0.42,3.878,0.991,9.627,1.248,17.099c0.244,7.465,0.175,16.671-1.055,27.314c-0.307,2.66-0.689,5.407-1.154,8.236
							c-0.478,2.829-0.969,5.745-1.759,8.682c-1.563,5.883-3.794,11.965-6.519,18.189c-2.741,6.217-5.995,12.594-9.976,18.88
							c-1.996,3.137-4.178,6.249-6.625,9.229c-2.454,2.967-5.169,5.833-8.303,8.231c-6.496,4.646-13.676,9.095-21.58,12.373
							c-7.909,3.309-16.598,5.352-25.686,6.284c-2.272,0.237-4.569,0.411-6.887,0.531c-1.166,0.057-2.309,0.105-3.495,0.137
							c-0.527,0.026-1.098-0.014-1.695-0.02l-1.762-0.06c-4.702-0.186-9.454-0.592-14.21-1.349c-4.755-0.75-9.51-1.861-14.187-3.413
							c-4.679-1.547-9.267-3.556-13.728-5.946c-4.448-2.396-8.836-5.141-13.052-8.11c-4.117-3.081-7.672-7.009-10.902-11.202
							c-6.431-8.451-11.697-18.031-16.173-28.137c0,0-0.229-0.741-0.695-2.248c-0.461-1.509-1.159-3.782-1.992-6.872
							c-0.809-3.093-1.836-6.993-2.477-11.804c-0.672-4.819-1.322-10.498-1.711-17.069c-0.797-13.132-0.454-29.873,2.505-50.12
							c1.459-10.076,4.25-20.949,9.143-32.077c4.845-11.15,11.761-22.438,19.751-34.131c0,0-0.329,0.577-1.135,1.989
							c-0.826,1.4-2.141,3.629-4.096,6.943c-1.94,3.319-4.536,7.721-7.593,13.608c-3.026,5.893-6.56,13.286-9.525,22.755
							c-1.478,4.732-2.792,9.982-3.779,15.788c-0.5,2.904-0.89,5.932-1.25,9.159c-0.362,3.21-0.684,6.552-0.948,10.027
							c-1.026,13.889-1.21,29.996,1.758,48.084c0.195,1.129,0.393,2.268,0.592,3.415c0.107,0.573,0.215,1.148,0.323,1.726
							c0.113,0.547,0.226,1.097,0.34,1.647c0.491,2.194,1.127,4.459,1.85,6.748c1.448,4.584,3.244,9.28,5.317,14.021
							c2.075,4.741,4.439,9.535,7.152,14.277c2.711,4.734,5.785,9.439,9.377,13.744c1.799,2.14,3.736,4.178,5.829,5.927
							c0.524,0.434,1.053,0.858,1.596,1.249c0.608,0.432,1.219,0.865,1.832,1.301c1.25,0.875,2.516,1.736,3.801,2.577
							c5.135,3.368,10.586,6.387,16.502,8.733c5.908,2.359,12.286,4.031,19.03,5.064c3.371,0.521,6.831,0.882,10.362,1.121
							c0.884,0.05,1.771,0.101,2.662,0.151l0.669,0.031c0.134,0.004,0.006,0.005,0.083,0.007c0.012,0.003,0.217,0,0.069,0.004
							l0.345-0.002l1.362-0.012c1.777-0.023,3.596-0.08,5.403-0.177c0,0-0.651,0.028-2.148,0.092
							c-0.749,0.02-1.709,0.044-2.905,0.075c-0.605,0.007-1.271,0.014-1.998,0.021c-0.665-0.031-1.387-0.065-2.169-0.103
							c-3.383-0.192-7.803-0.508-13.33-1.402c-5.516-0.915-12.153-2.408-19.65-5.569c-3.747-1.583-7.698-3.597-11.848-6.123
							c-2.076-1.262-4.202-2.65-6.388-4.155c-0.546-0.38-1.097-0.763-1.652-1.149c-0.494-0.353-0.985-0.716-1.475-1.107
							c-0.979-0.782-1.95-1.647-2.91-2.584c-3.839-3.758-7.473-8.575-10.903-14.059c-3.419-5.501-6.675-11.691-9.639-18.507
							c-1.484-3.405-2.896-6.971-4.171-10.683c-1.263-3.725-2.428-7.547-3.157-11.529c-1.574-8.267-2.653-17.104-3.013-26.523
							c-0.366-9.415-0.033-19.396,1.032-29.872c0.554-5.234,1.185-10.631,2.203-15.995c1.026-5.385,2.447-10.832,4.34-16.276
							c0,0-0.633,2.115-1.569,6.046c-0.929,3.934-2.088,9.688-2.834,17.015c-1.505,14.815-2.917,35.755,0.442,59.329
							c0,0-0.3-1.602-0.764-4.783c-0.455-3.184-1.064-7.953-1.446-14.312c-0.375-6.358-0.505-14.313,0.074-23.799
							c0.289-4.741,0.753-9.862,1.438-15.346c0.658-5.454,1.669-11.158,3.293-17.132c1.617-5.963,3.836-12.151,6.769-18.453
							c2.923-6.306,6.548-12.722,10.728-19.255c4.178-6.536,8.895-13.199,13.925-20.099c1.258-1.745,2.532-3.415,3.839-5.289
							c1.276-1.852,2.464-3.781,3.573-5.771c2.218-3.982,4.128-8.203,5.81-12.586c3.355-8.773,5.817-18.182,7.728-28.012
							c1.903-9.835,3.242-20.106,4.157-30.744c0.459-5.323,0.802-10.72,1.098-16.23c0.186-5.525,0.129-11.102,0.089-16.772
							c-0.111-11.335-0.358-23-0.669-34.994c0.286,10.953,0.433,18.849,0.52,24.035c0.081,5.188,0.119,7.665,0.121,7.785
							c-0.001-0.12-0.02-2.126-0.058-6.367c-0.076-4.246-0.188-10.498-0.328-18.407c-0.174-7.908-0.419-17.47-0.78-28.334
							c-0.38-10.863-0.797-23.032-1.668-36.138c-1.145-13.082-1.889-27.136-2.318-41.812c-0.215-7.337-0.371-14.827-0.399-22.423
							c0.005-3.793-0.031-7.632,0.2-11.449c0.105-1.878,0.899-3.697,2.33-4.918c1.417-1.243,3.267-1.879,5.134-2.29
							c0.898-0.126,1.968-0.085,2.951-0.114l3.017-0.021c2.014-0.002,4.03-0.004,6.05-0.006c4.04,0.014,8.091,0.028,12.146,0.043
							c4.056,0.015,8.115,0.031,12.175,0.046l6.085,0.05l3.037,0.044l1.516,0.034l0.752,0.026c0.238,0.018,0.45,0.004,0.667,0.069
							c1.215,0.286,2.377,0.627,3.437,1.192c1.057,0.552,1.989,1.315,2.646,2.273c0.659,0.957,1.022,2.094,1.137,3.266
							c0.104,1.207,0.13,2.461,0.161,3.699c0.095,4.969,0.056,9.929-0.007,14.851c-0.138,9.844-0.435,19.55-0.877,29.016
							c-0.434,9.479-1.081,18.66-1.942,27.576c-0.712,8.935-1.163,17.543-1.579,25.742c-1.587,32.794-2.279,58.978-2.757,72.712
							c0,0,0.011,0.767,0.032,2.206c0.024,1.441,0.061,3.551,0.157,6.257c0.052,1.357,0.108,2.853,0.241,4.545
							c0.129,1.607,0.269,3.346,0.417,5.204c0.307,3.732,0.693,7.951,1.222,12.545c1.059,9.184,2.655,19.889,5.331,31.182
							c2.705,11.26,6.422,23.215,12.394,34.184c1.501,2.73,3.15,5.387,4.977,7.909c1.868,2.525,3.771,4.84,5.619,7.257
							c3.709,4.784,7.303,9.538,10.641,14.245c6.7,9.393,12.261,18.695,16.068,27.182c3.854,8.468,6.031,16.003,7.305,21.394
							c1.265,5.401,1.723,8.666,1.822,8.924"/>
						<path fill="none" stroke="#1B1B1B" stroke-width="0" d="M19.093,325.947c0,0-0.328,0.688-0.969,2.034
							c-0.632,1.351-1.562,3.367-2.683,6.058c-2.22,5.373-5.273,13.488-7.34,24.337c-1.06,5.417-1.729,11.505-2.27,18.175
							c-0.532,6.671-0.867,13.941-0.774,21.742c0.096,7.799,0.626,16.129,1.872,24.859c0.622,4.356,1.427,8.848,2.415,13.361
							c1.007,4.386,2.551,8.895,4.309,13.421c3.575,9.039,8.114,18.304,13.878,27.132c2.9,4.383,6.13,8.677,9.863,12.374
							c0.933,0.92,1.897,1.797,2.893,2.611c1.011,0.831,1.969,1.497,3.195,2.329c2.336,1.592,4.714,3.134,7.153,4.586
							c4.876,2.906,10.003,5.439,15.456,7.386c5.446,1.96,11.21,3.34,17.206,4.217c2.997,0.441,6.051,0.756,9.147,0.976
							c1.549,0.108,3.108,0.19,4.678,0.249l0.147,0.006c0.13,0.003-0.014,0.003,0.058,0.004l0.194,0.002l0.605-0.008l1.185-0.021
							l2.356-0.068c6.307-0.239,12.659-0.896,18.931-2.263c6.271-1.359,12.444-3.465,18.417-6.361
							c2.988-1.443,5.93-3.073,8.842-4.835c1.456-0.882,2.903-1.798,4.346-2.74l1.081-0.711c0.332-0.229,0.671-0.447,0.998-0.691
							c0.663-0.469,1.308-0.982,1.948-1.505c5.104-4.271,9.452-9.836,13.34-15.73c3.882-5.928,7.297-12.302,10.305-18.94
							c2.964-6.648,5.637-13.579,7.275-20.797c1.512-7.291,2.557-14.787,3.086-22.378c1.074-15.196,0.093-30.78-2.28-46.353"/>
					</g>
					<path fill="none" stroke="#1B1B1B" stroke-width="0" d="M68.425,220.464c0,0-0.088,0.929-0.256,2.718
						c-0.178,1.789-0.449,4.437-0.877,7.869c-0.892,6.855-2.251,16.897-5.525,29.291c-1.669,6.183-3.832,12.962-7.103,20.006
						c-1.644,3.515-3.575,7.093-5.957,10.6c-2.356,3.345-4.792,6.803-7.303,10.366c-4.938,7.115-10.041,14.715-14.679,22.983
						c-4.635,8.263-8.724,17.235-11.521,26.944c-1.408,4.85-2.507,9.874-3.286,15.041c-0.383,2.562-0.706,5.251-1.002,7.937
						c-0.292,2.688-0.549,5.396-0.761,8.123c-0.84,10.907-0.975,22.121-0.007,33.422c0.479,5.651,1.236,11.318,2.275,17l0.4,2.133
						c0.139,0.729,0.263,1.31,0.418,1.985c0.304,1.312,0.659,2.652,1.054,3.999c0.791,2.695,1.71,5.421,2.725,8.132
						c2.038,5.422,4.411,10.814,7.083,16.046c2.683,5.221,5.644,10.322,9,14.998c1.679,2.332,3.446,4.564,5.322,6.579
						c0.937,1.008,1.899,1.961,2.88,2.839c0.493,0.434,0.987,0.855,1.487,1.247c0.517,0.411,0.946,0.719,1.612,1.192
						c4.918,3.498,9.902,6.673,15.115,9.244c5.204,2.59,10.65,4.579,16.336,5.996c5.682,1.424,11.585,2.281,17.584,2.766
						l2.255,0.162l1.13,0.067l0.565,0.032c-0.227,0.003,0.276,0.005,0.015,0.008l0.294,0.001l2.274-0.003l2.258-0.04
						c3.007-0.08,5.997-0.248,8.958-0.551c5.926-0.587,11.734-1.695,17.345-3.442c5.612-1.739,11.018-4.141,16.228-7.03
						c2.607-1.439,5.171-2.988,7.703-4.608c2.397-1.489,4.549-3.283,6.624-5.307"/>
				</g>
			</g>
		</g>
	</g>
</g>
<circle fill="none" stroke="#333333" stroke-width="3" stroke-miterlimit="10" cx="97.384" cy="25.549" r="9.591"/>
</svg>
